<?xml version="1.0" encoding="UTF-8"?>
<svg id="b" data-name="Layer 1" xmlns="http://www.w3.org/2000/svg" viewBox="0 0 798 798">
  <defs>
    <style>
      .c {
        fill: #fff;
        stroke-width: 0px;
      }
    </style>
  </defs>
  <path class="c" d="M398.99,193.47c-113.31,0-205.52,92.2-205.52,205.52s92.2,205.54,205.52,205.54,205.54-92.2,205.54-205.54-92.2-205.52-205.54-205.52ZM398.99,517.69c-65.42,0-118.68-53.26-118.68-118.71s53.26-118.65,118.68-118.65,118.68,53.24,118.68,118.65c0,65.44-53.24,118.71-118.68,118.71Z"/>
  <path class="c" d="M611.13,138.71c-26.82,0-48.63,21.81-48.63,48.63s21.81,48.63,48.63,48.63,48.63-21.81,48.63-48.63-21.81-48.63-48.63-48.63Z"/>
  <path class="c" d="M798,201.3C798,90.29,707.71,0,596.7,0H201.3C90.29,0,0,90.29,0,201.3v395.4c0,111.01,90.29,201.3,201.3,201.3h395.4c111.01,0,201.3-90.29,201.3-201.3h0V201.3ZM711.16,596.7c0,63.11-51.35,114.46-114.46,114.46H201.3c-63.11,0-114.46-51.35-114.46-114.46V201.3c0-63.11,51.35-114.46,114.46-114.46h395.4c63.11,0,114.46,51.35,114.46,114.46v395.4Z"/>
</svg>